<svg version="1.1" id="Layer_1" xmlns="http://www.w3.org/2000/svg" xmlns:xlink="http://www.w3.org/1999/xlink" x="0px" y="0px"
	 width="100%" viewBox="0 0 496 496" enable-background="new 0 0 496 496" xml:space="preserve">
<path fill="#000000" opacity="1.000000" stroke="none" 
	d="
M169.189209,303.732117 
	C191.267227,304.423279 212.806580,303.889526 234.615158,299.486420 
	C234.634918,306.594086 232.913681,312.651001 231.867050,318.765991 
	C228.169006,340.371735 224.292847,361.946930 220.490707,383.534882 
	C219.913071,386.814697 221.047394,388.712341 224.641464,388.657990 
	C227.472748,388.615143 230.305145,388.644501 233.137054,388.645050 
	C287.111694,388.655670 341.086334,388.661926 395.060974,388.697113 
	C397.017426,388.698364 399.052612,388.283844 401.405640,389.541565 
	C401.308899,396.998535 399.148926,404.343384 397.999451,411.801270 
	C396.280273,422.955688 394.068237,434.033508 392.281250,445.178467 
	C391.628418,449.250153 390.102600,451.116852 385.552704,451.111481 
	C303.591339,451.014862 221.629791,451.044098 139.668488,451.181091 
	C134.858521,451.189117 134.025940,449.271210 134.759354,445.135956 
	C138.845688,422.096008 142.834183,399.038696 146.855179,375.987152 
	C150.477188,355.222870 154.096161,334.458038 157.727707,313.695404 
	C157.838562,313.061707 158.074615,312.449921 158.409302,311.278290 
	C167.542191,313.906647 175.925629,321.169525 186.229935,315.626526 
	C177.390610,312.121399 168.229263,309.592896 158.718918,304.688110 
	C162.891281,302.952057 165.862946,303.962555 169.189209,303.732117 
M280.454285,414.412445 
	C276.664001,420.835083 277.722290,427.261353 283.187408,429.797211 
	C282.477783,428.842773 281.872406,428.070068 281.312073,427.265991 
	C280.248047,425.739166 279.200623,424.063477 280.056183,422.207520 
	C281.024384,420.107239 283.193939,420.805389 284.923615,420.718170 
	C287.406067,420.592957 289.899048,420.691132 292.384186,420.601135 
	C294.973663,420.507416 295.863007,419.312439 295.095734,416.675049 
	C294.165039,413.476074 292.190002,411.462891 289.034637,410.750275 
	C285.672577,409.990967 282.800812,410.821442 281.000671,414.007172 
	C281.000671,414.007172 281.025452,413.984650 280.454285,414.412445 
M331.873108,430.606628 
	C333.630737,431.764771 335.512146,432.017944 337.654327,431.408112 
	C330.351044,429.850830 330.416687,429.510376 330.505066,416.577972 
	C330.538208,411.728821 333.306366,411.525940 336.838898,411.385742 
	C333.959320,410.757874 330.430328,411.655945 329.836121,407.036194 
	C329.431000,413.852478 329.400757,420.272888 329.455017,426.692566 
	C329.466736,428.075378 330.307037,429.174988 331.873108,430.606628 
M270.533356,414.427155 
	C272.384308,419.566223 270.484589,425.084717 272.183777,430.268951 
	C272.594055,425.699127 272.906403,421.114136 272.508270,416.591705 
	C272.090698,411.848541 268.475433,409.869934 263.734222,411.421387 
	C266.113861,411.830444 268.619385,411.428436 270.533356,414.427155 
M238.928375,413.035065 
	C238.566223,412.784943 238.208145,412.527985 237.831039,412.302856 
	C237.809860,412.290222 237.540466,412.539948 237.540131,412.667999 
	C237.524979,418.504333 237.526978,424.340668 237.526978,430.177032 
	C239.371246,424.780243 237.478836,418.952759 240.636444,413.881866 
	C240.181931,413.715454 239.727417,413.549042 238.928375,413.035065 
M303.718323,428.535492 
	C303.096985,428.153961 302.987732,427.006256 301.527496,427.384613 
	C303.993073,431.602997 307.735382,432.228790 311.840485,431.517883 
	C314.371185,431.079651 316.738403,429.798737 317.335815,427.045349 
	C317.836243,424.739197 316.550415,423.150757 313.660889,421.859863 
	C315.297668,424.174713 317.035004,425.612915 315.731415,427.891083 
	C314.521942,430.004791 312.426910,430.731750 310.233337,430.795746 
	C308.095978,430.858063 305.881134,430.638397 303.718323,428.535492 
M304.128326,419.311462 
	C305.961029,420.732300 308.097870,421.056702 310.364685,421.111969 
	C307.677063,419.544189 302.988892,419.806061 303.498230,415.382538 
	C304.034302,410.726440 308.907257,412.220551 312.801758,411.116089 
	C308.553009,409.820862 305.615692,410.690399 303.294922,413.035980 
	C301.514221,414.835693 302.038757,416.961639 304.128326,419.311462 
M358.234985,431.040649 
	C363.226715,427.831879 363.508942,426.251190 359.424530,422.643219 
	C360.786407,424.877289 361.999969,427.288025 359.433258,429.136536 
	C355.225494,432.166870 351.131073,431.052185 347.228333,428.217499 
	C349.765656,432.278687 353.609070,431.945892 358.234985,431.040649 
M258.723694,415.696594 
	C259.954163,413.447723 257.986694,413.251678 256.254974,411.392883 
	C256.592407,418.269287 256.869690,423.919952 257.146973,429.570618 
	C257.803986,427.409576 257.765991,425.271729 257.814362,423.135803 
	C257.866272,420.843231 257.421326,418.498444 258.723694,415.696594 
M347.420959,416.015625 
	C348.425354,413.257446 350.384979,411.936951 353.321960,411.642761 
	C356.065979,411.367950 358.368439,412.474396 360.707672,413.659576 
	C354.783051,408.705872 349.380157,409.611786 347.420959,416.015625 
z"/>
<path fill="#000000" opacity="1.000000" stroke="none" 
	d="
M353.959015,280.375977 
	C317.299927,280.375885 281.133850,280.468292 244.969482,280.261475 
	C240.205368,280.234253 237.652359,281.544952 237.465179,286.344086 
	C237.357346,289.108582 235.984116,290.538666 233.423004,291.272888 
	C210.832977,297.748749 187.934784,301.039764 164.390091,298.405884 
	C161.180435,298.046844 160.535873,296.748474 161.046585,293.838928 
	C168.710983,250.174576 176.316238,206.499863 183.951630,162.830399 
	C184.003952,162.531143 184.282028,162.271362 184.457672,161.995911 
	C185.660339,161.427811 186.354813,162.224945 186.974487,163.004974 
	C196.653732,175.188828 210.067917,180.546173 224.696625,183.723816 
	C232.818848,185.488113 240.886368,187.534515 249.053619,189.048782 
	C253.212051,189.819763 254.098129,191.786133 253.349548,195.594513 
	C251.915741,202.889160 250.750885,210.236679 249.506027,217.380936 
	C251.636673,219.100189 253.719254,218.623962 255.646194,218.640717 
	C263.978607,218.713242 272.321014,218.921539 280.643188,218.621033 
	C296.799683,218.037628 312.936310,220.566422 329.014771,219.511917 
	C352.325989,217.983047 375.616821,219.211533 398.908447,218.696548 
	C400.700806,218.656921 402.498962,218.877655 404.760864,219.003296 
	C404.403595,227.174606 402.375854,234.688248 401.171539,242.295380 
	C399.457550,253.121841 397.190094,263.860168 395.435638,274.681000 
	C394.910614,277.919312 393.707794,279.352905 390.353821,279.351013 
	C378.379150,279.344269 366.389343,278.997742 353.959015,280.375977 
M251.688110,263.686005 
	C251.709198,260.195618 251.704559,256.704803 251.763474,253.215027 
	C251.788620,251.725388 251.725113,249.915161 253.790176,249.837646 
	C256.115173,249.750366 256.255157,251.641403 256.279297,253.355057 
	C256.326172,256.678833 256.279388,260.003998 256.330078,263.327698 
	C256.349884,264.624756 256.234924,266.097809 258.111877,266.329163 
	C260.005768,263.557861 260.487793,250.719284 258.796173,248.303864 
	C257.857452,246.963470 256.605164,246.203522 254.952988,246.701279 
	C250.494202,248.044617 246.028122,246.842285 241.484375,247.021454 
	C239.356247,251.843094 239.826263,263.727448 242.333694,266.253357 
	C243.555878,265.944885 243.754745,264.958954 243.774475,263.939636 
	C243.835541,260.782562 243.786499,257.622284 243.901855,254.467712 
	C243.966217,252.707001 243.706329,250.246750 246.105225,250.128098 
	C248.826462,249.993515 248.210464,252.587204 248.279221,254.256744 
	C248.409058,257.409912 248.320862,260.571625 248.350906,263.729553 
	C248.360489,264.737762 248.418182,265.891052 249.601868,266.170410 
	C250.823364,266.458679 251.339859,265.526093 251.688110,263.686005 
M334.527222,252.958237 
	C332.128723,253.502151 332.689697,251.589355 332.652466,250.489578 
	C332.545837,247.340744 332.645020,244.185394 332.631927,241.032745 
	C332.625702,239.532761 332.752563,237.817612 330.604034,237.713135 
	C328.463257,237.609009 328.316528,239.252762 328.313629,240.798798 
	C328.299622,248.265549 328.314453,255.732407 328.343597,263.199127 
	C328.349457,264.702362 328.295288,266.483398 330.445282,266.417389 
	C332.435425,266.356293 332.592346,264.679138 332.636169,263.127045 
	C332.693420,261.101624 332.652771,259.034851 335.271454,258.515411 
	C339.295990,259.958588 339.310028,266.904388 345.757751,266.402588 
	C344.222046,262.057526 341.222473,259.665009 339.619080,256.462494 
	C337.233185,251.696991 343.875336,250.873688 344.062164,247.115555 
	C340.832031,246.746994 340.832031,246.746994 334.527222,252.958237 
M263.356323,258.712769 
	C262.166809,263.383514 264.424469,266.801514 269.108307,266.534546 
	C272.431763,266.345123 275.734772,265.687225 279.678650,266.535065 
	C279.678650,262.875092 279.691101,259.753204 279.673248,256.631470 
	C279.664703,255.137573 279.799469,253.605209 279.519836,252.157806 
	C278.782837,248.343246 276.160156,246.575455 272.450104,246.379013 
	C268.734253,246.182281 265.254242,246.582764 263.876801,250.947067 
	C266.484192,252.550003 267.727478,250.113693 269.507141,249.627472 
	C271.822296,248.994919 274.079407,249.184021 274.871704,251.734619 
	C275.848785,254.880035 273.140717,254.694351 271.264954,254.940796 
	C268.448608,255.310822 265.583221,255.459122 263.356323,258.712769 
M296.667145,256.389923 
	C296.665253,251.912445 296.706909,247.434341 296.640991,242.957809 
	C296.613007,241.060150 297.231598,238.634094 294.513916,238.043427 
	C291.789612,237.451340 288.779999,236.248535 286.203491,239.850220 
	C290.512695,240.641373 292.950653,242.474289 292.379761,247.087158 
	C291.935150,250.679581 291.737152,254.486404 292.442688,257.994171 
	C293.500183,263.251984 288.475372,262.833069 286.159058,265.027527 
	C290.785675,267.579895 299.744446,267.210297 302.588562,264.275726 
	C298.778809,263.436218 295.439728,262.146759 296.667145,256.389923 
M384.210266,246.846359 
	C381.948029,246.016998 379.574036,246.113068 377.318695,246.528091 
	C374.555420,247.036575 372.157104,248.632584 371.861328,251.614517 
	C371.550140,254.752029 373.909119,256.316895 376.589478,257.211731 
	C378.474915,257.841156 380.440460,258.226898 382.344757,258.805237 
	C383.520111,259.162201 384.463257,259.874756 384.409546,261.268066 
	C384.355469,262.671051 383.264618,263.149109 382.152832,263.600433 
	C380.082245,264.441040 378.230316,263.811493 376.474915,262.749451 
	C375.091888,261.912628 373.854492,260.562775 372.054901,261.875122 
	C374.438477,266.611816 380.547760,268.302704 385.485443,265.632385 
	C387.351166,264.623413 388.696899,263.261627 388.644012,260.966064 
	C388.591736,258.695404 387.351349,257.183746 385.326660,256.448303 
	C382.997589,255.602249 380.573456,255.021362 378.207916,254.270889 
	C377.019928,253.893997 376.104828,253.090622 376.109497,251.783722 
	C376.115509,250.114288 377.505859,249.688828 378.793854,249.300934 
	C380.530029,248.778091 382.069244,249.319305 383.490173,250.304184 
	C384.855499,251.250488 386.188293,252.358444 387.862610,250.789963 
	C387.860565,248.714478 386.253357,248.034256 384.210266,246.846359 
M311.433746,249.764984 
	C314.685242,250.778259 313.323792,253.607178 313.655060,255.688736 
	C313.991455,257.802551 314.095459,259.975342 313.210022,262.077789 
	C312.245178,264.368896 308.140625,262.001251 308.065430,266.264740 
	C313.251190,266.597473 318.358124,267.440338 323.816071,265.078735 
	C316.002899,263.371094 318.030792,257.603577 317.887512,252.809753 
	C317.852722,251.645233 317.829834,250.480331 317.795441,249.315811 
	C317.743347,247.551636 316.913513,246.405029 315.078491,246.448196 
	C312.981964,246.497543 310.453125,245.425049 308.921783,247.274567 
	C307.591980,248.880630 309.255768,249.469833 311.433746,249.764984 
M364.564301,266.583496 
	C367.297363,265.444305 367.319427,263.984528 364.466461,263.475922 
	C361.501953,262.947418 361.185516,261.109650 361.109283,258.876221 
	C361.030121,256.557678 361.232849,254.223907 361.058441,251.915970 
	C360.920959,250.096649 362.361115,247.320145 359.737274,246.721634 
	C357.164764,246.134842 353.970428,245.188278 351.243042,248.601593 
	C356.251831,249.373703 357.198242,252.213959 357.368317,256.550507 
	C357.555267,261.316437 355.612518,263.627045 351.111359,265.053162 
	C355.419800,267.493958 359.693176,266.271149 364.564301,266.583496 
z"/>
<path fill="#000000" opacity="1.000000" stroke="none" 
	d="
M192.830292,113.150101 
	C195.592239,96.419189 198.550095,80.082710 201.126556,63.686310 
	C201.811142,59.329597 203.882584,58.529640 207.783463,58.572330 
	C223.777527,58.747353 239.774628,58.647087 255.770599,58.647190 
	C320.754272,58.647606 385.737946,58.642223 450.721619,58.670433 
	C453.009033,58.671425 455.384064,58.195435 458.151611,59.629066 
	C456.813904,67.602234 455.489532,75.729752 454.079651,83.842430 
	C452.202515,94.643700 450.099609,105.408882 448.430328,116.241440 
	C447.848358,120.017967 446.230865,121.273094 442.552368,121.254524 
	C422.224670,121.151939 401.896179,121.228241 381.568024,121.189827 
	C379.118835,121.185204 376.512115,121.607727 377.147583,117.313911 
	C380.101807,97.352585 371.491272,83.852989 352.302094,77.137611 
	C334.197357,70.801735 315.702606,69.382927 296.704590,71.135086 
	C273.961945,73.232613 252.123215,78.476898 231.355301,88.052727 
	C218.667831,93.902771 207.509232,101.928261 197.350235,111.465401 
	C196.253357,112.495110 195.591553,115.588593 192.830292,113.150101 
z"/>
<path fill="#000000" opacity="1.000000" stroke="none" 
	d="
M292.000000,121.232849 
	C284.670410,121.236763 277.839355,121.323807 271.011810,121.207779 
	C267.619537,121.150124 265.867828,122.365715 265.286041,125.905899 
	C263.104095,139.182587 260.472961,152.388794 258.488403,165.692764 
	C257.789429,170.378494 256.147339,171.436691 251.688049,170.414017 
	C242.139648,168.224213 232.402695,166.842392 223.142624,163.461685 
	C219.535248,162.144714 216.094223,160.548630 212.873367,158.402664 
	C198.649780,148.925888 195.969482,136.135330 205.634552,122.076797 
	C216.919724,105.661674 232.839035,95.286674 251.257767,88.718781 
	C271.006744,81.676521 291.491913,78.298553 312.489563,78.991455 
	C323.982086,79.370697 335.366760,80.820869 346.057373,85.614708 
	C358.467072,91.179420 365.765991,102.102104 365.267517,114.568352 
	C365.041199,120.227547 364.083344,121.208969 358.464325,121.214706 
	C336.476227,121.237137 314.488098,121.228981 292.000000,121.232849 
z"/>
<path fill="#000000" opacity="1.000000" stroke="none" 
	d="
M280.991089,414.021118 
	C288.607025,409.807892 292.976257,411.421143 293.816254,419.033417 
	C290.065735,420.676208 286.078491,420.079102 282.234222,419.647522 
	C278.632416,419.243134 280.187073,416.715179 280.924622,414.363464 
	C281.025452,413.984650 281.000671,414.007172 280.991089,414.021118 
z"/>
<path fill="#000000" opacity="1.000000" stroke="none" 
	d="
M273.492676,262.697052 
	C271.185181,263.384003 269.193756,263.928192 267.671295,262.046783 
	C266.889313,261.080383 266.713226,259.924194 267.533936,258.856110 
	C268.744781,257.280273 270.533417,256.563049 272.347931,256.885284 
	C276.481293,257.619354 275.861115,259.923370 273.492676,262.697052 
z"/>
</svg>