<?xml version="1.0" standalone="no"?>
<!DOCTYPE svg PUBLIC "-//W3C//DTD SVG 20010904//EN"
 "http://www.w3.org/TR/2001/REC-SVG-20010904/DTD/svg10.dtd">
<svg version="1.0" xmlns="http://www.w3.org/2000/svg"
 width="500.000000pt" height="500.000000pt" viewBox="0 0 500.000000 500.000000"
 preserveAspectRatio="xMidYMid meet">

<g transform="translate(0.000000,500.000000) scale(0.100000,-0.100000)"
fill="#000000" stroke="none">
<path d="M0 2500 l0 -2500 2500 0 2500 0 0 2500 0 2500 -2500 0 -2500 0 0
-2500z m2160 817 c-20 -7 -45 -19 -56 -27 -87 -65 -138 -242 -101 -350 l12
-35 90 -6 c84 -5 86 -5 25 -7 -103 -3 -115 -24 -39 -63 55 -28 117 -29 136 -4
7 11 12 28 9 38 -4 18 -4 18 15 1 50 -45 -7 -124 -90 -124 -43 0 -118 27 -172
61 -25 16 -50 29 -56 29 -6 0 -39 -29 -75 -64 -77 -78 -148 -198 -185 -316
-24 -72 -28 -103 -28 -205 0 -110 2 -125 27 -177 68 -145 205 -209 338 -159
76 29 177 107 268 210 83 92 182 219 226 289 35 56 47 47 13 -10 -82 -140
-269 -352 -382 -433 -155 -110 -240 -116 -409 -27 -166 86 -247 230 -233 411
17 212 164 417 362 502 46 20 55 27 50 44 -29 98 -32 158 -11 229 36 120 142
204 256 204 l45 0 -35 -11z m191 -59 c33 -46 37 -124 9 -182 -26 -55 -62 -82
-115 -90 -37 -5 -38 -5 -9 4 17 5 39 18 48 29 47 51 61 187 27 254 -18 35 -18
36 0 27 9 -6 28 -24 40 -42z m-162 -182 c10 -11 8 -16 -5 -24 -12 -7 -15 -17
-11 -33 6 -23 5 -23 -8 -5 -32 43 -9 101 24 62z m1001 -562 c-106 -46 -140
-150 -84 -260 14 -28 66 -102 116 -165 141 -176 176 -274 144 -398 -27 -106
-88 -176 -192 -223 -73 -33 -199 -31 -274 3 -177 82 -212 285 -74 424 52 51
84 62 37 13 -52 -55 -86 -134 -91 -213 -6 -89 12 -134 67 -170 130 -87 409 9
467 161 39 103 -10 217 -168 382 -69 73 -132 166 -149 220 -25 86 39 187 141
222 67 24 111 26 60 4z m160 -58 c20 -63 -11 -131 -77 -165 -35 -18 -37 -13
-6 13 49 41 65 126 38 190 -7 16 -6 17 13 7 11 -6 26 -26 32 -45z m-160 -132
c0 -14 -4 -23 -10 -19 -5 3 -10 15 -10 26 0 10 5 19 10 19 6 0 10 -12 10 -26z
m-107 -404 c61 -67 17 -170 -73 -170 -27 0 -43 5 -47 15 -9 24 7 32 22 12 20
-28 67 -19 79 15 13 37 -8 104 -46 141 l-29 30 33 -7 c18 -3 45 -20 61 -36z"/>
</g>
</svg>
