<svg version="1.1" id="Layer_1" xmlns="http://www.w3.org/2000/svg" xmlns:xlink="http://www.w3.org/1999/xlink" x="0px" y="0px"
	 width="100%" viewBox="0 0 500 500" enable-background="new 0 0 500 500" xml:space="preserve">
<path fill="#000000" opacity="1.000000" stroke="none" 
	d="
M278.000000,501.000000 
	C185.333359,501.000000 93.166710,501.000000 1.000033,501.000000 
	C1.000000,417.666718 1.000000,334.333405 1.000000,251.000122 
	C1.000000,167.666809 1.000000,84.333496 1.000000,1.000139 
	C167.666565,1.000093 334.333130,1.000093 500.999756,1.000046 
	C500.999847,167.666519 500.999847,334.333038 500.999939,500.999786 
	C426.833344,501.000000 352.666656,501.000000 278.000000,501.000000 
M396.104095,221.001770 
	C395.003204,221.724396 393.905151,223.074295 392.800964,223.079346 
	C346.481842,223.291519 300.162170,223.399628 253.842560,223.398483 
	C252.670425,223.398453 251.498337,222.031586 251.200256,221.084549 
	C270.899414,220.927307 290.598572,220.770081 311.513428,220.603149 
	C310.060242,219.371826 309.835724,219.015213 309.612061,219.015717 
	C289.704010,219.062027 269.796051,219.135742 249.152252,219.109787 
	C248.963699,218.685013 248.551666,218.220337 248.619324,217.841293 
	C250.216141,208.896667 251.864655,199.961273 253.556168,190.738068 
	C247.432449,189.378113 241.940643,188.148376 236.444229,186.939667 
	C217.411316,182.754135 197.992554,179.373322 184.838425,161.114929 
	C176.840607,207.144562 169.022202,252.141556 161.167725,297.346283 
	C162.209045,297.574768 162.979218,297.828674 163.766510,297.904114 
	C185.213654,299.959930 206.228256,297.614655 227.141571,292.584473 
	C234.095810,290.911774 238.103424,288.179382 238.085556,280.811829 
	C238.085052,280.607300 238.497330,280.401794 239.710526,279.269958 
	C290.410675,279.269958 342.135010,279.269958 394.079376,279.269958 
	C397.667175,258.846313 401.108398,239.256943 404.620605,219.263519 
	C401.354034,219.263519 398.716858,219.263519 395.159454,219.022781 
	C374.678192,219.022781 354.196930,219.022781 333.715698,219.022781 
	C333.714050,219.386261 333.712402,219.749725 333.710754,220.113205 
	C354.448944,220.113205 375.187134,220.113205 396.104095,221.001770 
M195.672760,304.403076 
	C183.910660,304.403076 172.148560,304.403076 160.386459,304.403076 
	C160.319580,304.717163 160.252686,305.031281 160.185806,305.345367 
	C169.459686,308.602051 178.733582,311.858765 189.241501,315.548798 
	C186.766464,316.876617 185.482208,317.977051 184.032532,318.276398 
	C174.751633,320.192932 167.134628,315.175598 158.707657,311.520020 
	C150.649704,357.895538 142.671127,403.814178 134.659927,449.920593 
	C220.410172,449.920593 305.492859,449.920593 390.742798,449.920593 
	C394.295990,429.667358 397.811127,409.631287 401.411072,389.111572 
	C340.201721,389.111572 279.763367,389.111572 219.015015,389.111572 
	C224.213104,359.323853 229.340088,329.943665 234.394730,300.977966 
	C221.412201,302.141174 209.021820,303.251343 195.672760,304.403076 
M204.774597,104.259171 
	C208.370667,101.570602 211.836487,98.683197 215.585190,96.227654 
	C232.496063,85.150345 251.243668,78.576477 270.871918,74.434944 
	C297.918396,68.728172 324.912781,67.060333 351.675781,76.265472 
	C372.952820,83.583717 381.593170,98.178329 377.283356,120.275284 
	C400.416077,120.275284 423.504059,120.275284 447.117981,120.275284 
	C450.656494,100.044914 454.215576,79.696899 457.782135,59.306381 
	C372.432739,59.306381 287.543671,59.306381 202.547165,59.306381 
	C199.394470,77.341171 196.291214,95.093178 193.187973,112.845177 
	C193.466248,113.102867 193.744537,113.360558 194.022827,113.618248 
	C197.429428,110.657127 200.836044,107.696014 204.774597,104.259171 
M244.190247,168.203506 
	C248.361664,169.012756 252.533066,169.822006 256.935516,170.676071 
	C259.672638,155.164642 262.525299,140.299881 264.788544,125.345924 
	C265.431641,121.096664 267.099152,120.422585 270.869019,120.440376 
	C300.031555,120.577995 329.195099,120.516243 358.358307,120.516243 
	C360.131439,120.516243 361.904572,120.516235 363.791931,120.516235 
	C365.968506,109.546532 363.528961,100.423065 356.070312,92.926430 
	C349.883057,86.707672 341.900696,83.550644 333.479218,82.069160 
	C299.830017,76.149765 267.537720,80.688568 236.871841,95.778618 
	C223.942169,102.141029 213.304520,111.413185 205.382370,123.514168 
	C196.799500,136.624451 199.489151,148.686768 212.470062,157.465744 
	C221.833023,163.797913 232.597046,165.881912 244.190247,168.203506 
z"/>
<path fill="#FDFDFD" opacity="1.000000" stroke="none" 
	d="
M196.152100,304.382294 
	C209.021820,303.251343 221.412201,302.141174 234.394730,300.977966 
	C229.340088,329.943665 224.213104,359.323853 219.015015,389.111572 
	C279.763367,389.111572 340.201721,389.111572 401.411072,389.111572 
	C397.811127,409.631287 394.295990,429.667358 390.742798,449.920593 
	C305.492859,449.920593 220.410172,449.920593 134.659927,449.920593 
	C142.671127,403.814178 150.649704,357.895538 158.707657,311.520020 
	C167.134628,315.175598 174.751633,320.192932 184.032532,318.276398 
	C185.482208,317.977051 186.766464,316.876617 189.241501,315.548798 
	C178.733582,311.858765 169.459686,308.602051 160.185806,305.345367 
	C160.252686,305.031281 160.319580,304.717163 160.386459,304.403076 
	C172.148560,304.403076 183.910660,304.403076 196.152100,304.382294 
M242.274414,413.929535 
	C245.246613,413.113922 248.218811,412.298309 251.191010,411.482697 
	C248.981598,410.295349 246.733337,409.987671 244.618301,410.386475 
	C242.705215,410.747223 240.937576,411.879395 239.239807,411.897278 
	C238.944641,411.368896 238.649475,410.840546 238.354294,410.312164 
	C237.895157,410.975128 237.051682,411.630127 237.037750,412.302338 
	C236.927383,417.629272 236.953979,422.959625 236.989197,428.288574 
	C236.997574,429.556946 237.196991,430.824097 237.308517,432.091797 
	C238.011856,432.068390 238.715179,432.045013 239.418518,432.021606 
	C239.418518,429.400146 239.150253,426.743866 239.485199,424.165924 
	C239.921707,420.806366 240.836578,417.508942 242.274414,413.929535 
M280.375153,424.542389 
	C279.650452,422.288147 280.116455,421.128845 282.839691,421.233612 
	C287.133942,421.398834 291.439209,421.277588 295.706726,421.277588 
	C296.459381,412.565369 291.339111,408.413330 283.609192,410.529022 
	C279.018127,411.785583 278.542206,415.330231 277.805389,418.773071 
	C276.841278,423.278015 277.781555,427.431183 281.627563,430.424072 
	C286.085114,433.892914 292.589600,432.724121 294.905365,428.137054 
	C285.753662,431.233948 284.244568,430.930237 280.375153,424.542389 
M353.678162,432.370300 
	C354.838043,432.286621 356.300385,432.619171 357.099243,432.038666 
	C359.210602,430.504517 362.380798,428.711334 362.578552,426.762421 
	C362.761353,424.961426 359.873840,422.526276 357.883820,420.941345 
	C356.568909,419.894226 354.234100,420.201233 352.751038,419.271637 
	C351.183075,418.288879 350.083710,416.558563 348.779663,415.154785 
	C350.484894,414.117859 352.193481,412.252869 353.894440,412.259735 
	C355.889893,412.267792 357.901581,413.858459 359.859558,414.854431 
	C360.672546,415.268005 361.364716,415.919067 363.108398,417.186493 
	C361.595734,411.034729 358.180511,409.746552 353.844269,409.900421 
	C350.076935,410.034088 346.611359,411.178314 346.125336,415.417114 
	C345.663544,419.444275 349.037445,420.553040 352.181854,421.456238 
	C352.978638,421.685089 353.804626,421.825562 354.583099,422.102509 
	C357.123138,423.006134 361.152466,423.224457 359.898651,426.994080 
	C359.362122,428.607239 355.484253,429.648193 353.022614,429.883881 
	C351.494965,430.030121 349.770966,428.185394 348.144928,427.217804 
	C347.368683,426.755829 346.615448,426.255280 345.131439,425.316498 
	C346.234772,430.529175 349.196808,431.894257 353.678162,432.370300 
M300.777557,426.474335 
	C302.788483,431.924133 309.184143,434.335358 314.562378,431.257751 
	C316.154907,430.346436 317.863800,428.058502 317.868591,426.396576 
	C317.873413,424.732086 316.154846,422.521637 314.576324,421.528961 
	C312.551178,420.255310 309.752594,420.263367 307.591827,419.135529 
	C306.111572,418.362976 305.150726,416.595245 303.957703,415.272369 
	C305.455353,414.201813 306.977386,412.231567 308.444916,412.271393 
	C310.649139,412.331238 312.848022,413.727875 314.981110,414.704742 
	C315.830170,415.093567 316.497650,415.878967 317.852814,416.971680 
	C316.393921,410.437378 310.377319,407.855255 304.988770,410.938660 
	C303.355347,411.873352 301.518311,414.111328 301.511444,415.759613 
	C301.504669,417.384521 303.384460,419.535706 305.005035,420.518494 
	C307.058502,421.763794 309.856201,421.741028 312.007385,422.879974 
	C313.507996,423.674408 314.461914,425.501373 315.660034,426.867096 
	C314.146881,427.936493 312.772797,429.384552 311.093384,430.001282 
	C306.792145,431.580963 304.411469,427.909973 300.777557,426.474335 
M338.999603,430.060181 
	C335.836182,429.945923 331.692963,431.295624 331.255280,426.270477 
	C330.857910,421.708496 331.171234,417.084625 331.171234,412.432709 
	C334.163330,412.223206 336.602722,412.052429 339.042114,411.881622 
	C339.033325,411.394379 339.024567,410.907166 339.015778,410.419952 
	C336.537018,410.268127 334.058289,410.116302 331.570435,409.963928 
	C331.169617,408.075562 330.806396,406.364471 330.443207,404.653412 
	C330.058594,404.678284 329.673981,404.703186 329.289368,404.728058 
	C328.983948,406.382538 328.678528,408.036987 328.377167,409.669434 
	C326.426025,410.056610 324.557007,410.427490 322.688019,410.798370 
	C322.740753,411.148285 322.793488,411.498169 322.846222,411.848083 
	C324.723724,412.084625 326.601227,412.321167 328.829437,412.601898 
	C328.829437,417.548065 328.463776,422.229919 329.007263,426.803741 
	C329.228271,428.663605 331.153473,431.329773 332.792175,431.757996 
	C334.856506,432.297424 337.421326,430.921295 338.999603,430.060181 
M258.715088,423.561371 
	C258.266541,419.086151 260.158142,414.277100 256.579651,410.229126 
	C256.579651,417.494659 256.579651,424.760193 256.579651,432.025726 
	C257.186707,432.054352 257.793732,432.083008 258.400787,432.111633 
	C258.505554,429.571960 258.610321,427.032257 258.715088,423.561371 
M270.725006,416.311096 
	C270.725006,421.536469 270.725006,426.761841 270.725006,431.987213 
	C271.544067,431.991058 272.363098,431.994873 273.182159,431.998718 
	C273.182159,427.223511 273.335632,422.442230 273.146301,417.674591 
	C272.859161,410.442841 267.678406,407.896881 262.387421,411.028137 
	C264.699432,412.308899 267.575073,413.901886 270.725006,416.311096 
z"/>
<path fill="#FCFCFC" opacity="1.000000" stroke="none" 
	d="
M396.079712,219.263519 
	C398.716858,219.263519 401.354034,219.263519 404.620605,219.263519 
	C401.108398,239.256943 397.667175,258.846313 394.079376,279.269958 
	C342.135010,279.269958 290.410675,279.269958 239.710526,279.269958 
	C238.497330,280.401794 238.085052,280.607300 238.085556,280.811829 
	C238.103424,288.179382 234.095810,290.911774 227.141571,292.584473 
	C206.228256,297.614655 185.213654,299.959930 163.766510,297.904114 
	C162.979218,297.828674 162.209045,297.574768 161.167725,297.346283 
	C169.022202,252.141556 176.840607,207.144562 184.838425,161.114929 
	C197.992554,179.373322 217.411316,182.754135 236.444229,186.939667 
	C241.940643,188.148376 247.432449,189.378113 253.556168,190.738068 
	C251.864655,199.961273 250.216141,208.896667 248.619324,217.841293 
	C248.551666,218.220337 248.963699,218.685013 249.569885,219.512650 
	C250.100418,220.377731 250.213333,220.839966 250.326233,221.302185 
	C251.498337,222.031586 252.670425,223.398453 253.842560,223.398483 
	C300.162170,223.399628 346.481842,223.291519 392.800964,223.079346 
	C393.905151,223.074295 395.003204,221.724396 396.140320,220.360870 
	C396.176544,219.719986 396.079712,219.263519 396.079712,219.263519 
M260.492523,259.458374 
	C260.492340,257.629364 260.512360,255.800079 260.488464,253.971375 
	C260.392120,246.592926 260.119019,246.365936 252.559296,246.974930 
	C252.133347,247.009247 251.679993,246.556870 251.237274,246.552658 
	C247.462753,246.516708 243.687744,246.532089 239.947784,246.532089 
	C239.947784,253.324661 239.947784,259.932129 239.947784,266.770508 
	C241.507050,266.770508 242.895172,266.770508 245.298157,266.770508 
	C245.298157,261.052521 245.298157,255.519333 245.298157,249.986160 
	C245.968033,249.999863 246.637894,250.013565 247.307770,250.027283 
	C247.307770,255.614487 247.307770,261.201721 247.307770,266.804626 
	C249.569687,266.804626 250.834930,266.804626 253.108719,266.804626 
	C253.108719,261.090149 253.108719,255.557587 253.108719,250.024994 
	C253.777084,250.030960 254.445450,250.036926 255.113815,250.042892 
	C255.113815,255.613022 255.113815,261.183167 255.113815,267.090485 
	C257.519257,266.917786 258.907501,266.818146 260.492432,266.704346 
	C260.492432,264.360870 260.492432,262.376007 260.492523,259.458374 
M344.939758,248.148453 
	C345.008209,247.438034 345.076660,246.727631 345.145111,246.017212 
	C342.920227,246.702438 340.441559,246.985397 338.540924,248.184540 
	C336.589569,249.415695 335.203064,251.542114 332.764099,254.131683 
	C332.764099,247.645721 332.764099,242.399536 332.764099,237.002441 
	C330.858063,237.106491 329.399933,237.186096 327.832336,237.271683 
	C327.832336,247.250259 327.832336,257.001160 327.832336,267.046082 
	C329.694916,266.949005 331.272736,266.866730 332.228180,266.816925 
	C333.047211,263.760101 333.721588,261.243134 334.619385,257.892334 
	C342.461517,267.528992 342.461517,267.528992 347.319000,266.138916 
	C344.561920,262.341949 341.846100,258.601837 339.027405,254.720047 
	C340.906586,252.636078 342.670227,250.680267 344.939758,248.148453 
M270.406616,267.211700 
	C273.812988,267.022858 277.219360,266.834045 280.153748,266.671387 
	C280.153748,261.920715 280.336365,257.171234 280.100464,252.442642 
	C279.881104,248.045624 276.999298,245.864655 271.870148,245.682175 
	C266.417511,245.488190 263.883942,247.237823 262.817749,252.826431 
	C265.113281,251.921295 266.989563,251.378815 268.671906,250.475296 
	C271.765869,248.813644 273.795807,249.858139 274.561859,253.712585 
	C264.675201,254.864624 261.783691,256.504700 262.043182,261.122040 
	C262.302979,265.745026 265.420197,267.207886 270.406616,267.211700 
M376.067200,261.694031 
	C374.429565,261.062439 372.791931,260.430847 370.621216,259.593658 
	C372.117523,266.753021 379.640808,269.675568 385.792694,266.073059 
	C387.493927,265.076813 389.177490,262.598572 389.256500,260.732086 
	C389.322632,259.169342 387.348358,256.968719 385.714691,256.024200 
	C383.638123,254.823608 380.938782,254.752365 378.621857,253.888641 
	C377.741119,253.560303 377.176575,252.383789 376.467896,251.593872 
	C377.347504,250.968277 378.201385,249.876663 379.112762,249.826309 
	C380.478729,249.750885 381.899261,250.358551 383.270874,250.762909 
	C385.165955,251.321594 387.037109,251.961365 389.755005,252.835403 
	C387.125702,246.122253 380.793579,243.698792 375.303894,246.677231 
	C373.434052,247.691727 371.468323,250.251221 371.343048,252.219131 
	C371.241394,253.816223 373.591156,255.900421 375.296539,257.177002 
	C376.667755,258.203461 378.781921,258.172180 380.416870,258.931976 
	C381.740784,259.547211 382.842163,260.641327 384.042236,261.523041 
	C382.647827,262.135315 381.298065,263.034363 379.843628,263.260681 
	C378.847565,263.415680 377.705780,262.634003 376.067200,261.694031 
M297.998444,262.529816 
	C297.693359,260.824524 297.151001,259.122864 297.125031,257.413330 
	C297.022888,250.686523 297.083191,243.957260 297.083191,237.323486 
	C292.787323,237.323486 289.191437,237.323486 285.644928,237.323486 
	C283.884888,243.637222 289.360779,240.628708 291.442810,242.182663 
	C291.442810,248.798492 291.442810,255.502899 291.442810,262.401276 
	C289.389435,262.574554 287.612396,262.724487 285.569275,262.896881 
	C285.569275,264.230652 285.569275,265.436920 285.569275,266.742004 
	C291.518097,266.742004 297.251343,266.742004 302.839325,266.742004 
	C304.087494,262.579529 301.669647,262.432587 297.998444,262.529816 
M355.650543,245.957932 
	C354.020050,245.957932 352.389526,245.957932 350.789551,245.957932 
	C350.526581,249.684082 350.526581,249.684082 356.003265,251.093140 
	C356.003265,254.816589 356.003265,258.540039 356.003265,262.217896 
	C350.493927,262.904724 350.493927,262.904724 350.772369,266.772400 
	C356.334930,266.772400 361.902527,266.772400 367.303497,266.772400 
	C369.435150,260.682709 363.796448,263.672546 361.819550,261.665009 
	C361.819550,256.742523 361.819550,251.500977 361.819550,245.957932 
	C359.825958,245.957932 358.196991,245.957932 355.650543,245.957932 
M318.733612,251.658966 
	C318.733612,249.884415 318.733612,248.109879 318.733612,246.153030 
	C314.631805,246.153030 311.043579,246.153030 307.309326,246.153030 
	C307.309326,247.552750 307.309326,248.778671 307.309326,250.048843 
	C309.292480,250.266159 311.055054,250.459305 312.890808,250.660461 
	C312.890808,254.670929 312.890808,258.440491 312.890808,262.357300 
	C310.944183,262.555634 309.168182,262.736572 307.339661,262.922882 
	C307.339661,264.295135 307.339661,265.520264 307.339661,266.853027 
	C313.024384,266.853027 318.452911,266.853027 324.022156,266.853027 
	C324.022156,265.448669 324.022156,264.211334 324.022156,262.940796 
	C322.202393,262.696838 320.623047,262.485107 318.733612,262.231812 
	C318.733612,258.869019 318.733612,255.743240 318.733612,251.658966 
M356.588562,242.095352 
	C358.355927,241.979126 360.123260,241.862915 361.890625,241.746689 
	C361.276093,240.479065 360.916992,238.389481 359.997314,238.103653 
	C357.595581,237.357224 355.886200,238.462311 356.588562,242.095352 
M317.906158,238.390503 
	C316.253967,239.002731 314.601746,239.614960 312.949554,240.227188 
	C313.913696,241.248917 314.833405,243.079193 315.850616,243.135101 
	C318.505859,243.281021 319.678070,241.720612 317.906158,238.390503 
z"/>
<path fill="#FDFDFD" opacity="1.000000" stroke="none" 
	d="
M204.508621,104.497040 
	C200.836044,107.696014 197.429428,110.657127 194.022827,113.618248 
	C193.744537,113.360558 193.466248,113.102867 193.187973,112.845177 
	C196.291214,95.093178 199.394470,77.341171 202.547165,59.306381 
	C287.543671,59.306381 372.432739,59.306381 457.782135,59.306381 
	C454.215576,79.696899 450.656494,100.044914 447.117981,120.275284 
	C423.504059,120.275284 400.416077,120.275284 377.283356,120.275284 
	C381.593170,98.178329 372.952820,83.583717 351.675781,76.265472 
	C324.912781,67.060333 297.918396,68.728172 270.871918,74.434944 
	C251.243668,78.576477 232.496063,85.150345 215.585190,96.227654 
	C211.836487,98.683197 208.370667,101.570602 204.508621,104.497040 
z"/>
<path fill="#FCFCFC" opacity="1.000000" stroke="none" 
	d="
M243.770798,168.138748 
	C232.597046,165.881912 221.833023,163.797913 212.470062,157.465744 
	C199.489151,148.686768 196.799500,136.624451 205.382370,123.514168 
	C213.304520,111.413185 223.942169,102.141029 236.871841,95.778618 
	C267.537720,80.688568 299.830017,76.149765 333.479218,82.069160 
	C341.900696,83.550644 349.883057,86.707672 356.070312,92.926430 
	C363.528961,100.423065 365.968506,109.546532 363.791931,120.516235 
	C361.904572,120.516235 360.131439,120.516243 358.358307,120.516243 
	C329.195099,120.516243 300.031555,120.577995 270.869019,120.440376 
	C267.099152,120.422585 265.431641,121.096664 264.788544,125.345924 
	C262.525299,140.299881 259.672638,155.164642 256.935516,170.676071 
	C252.533066,169.822006 248.361664,169.012756 243.770798,168.138748 
z"/>
<path fill="#9B9B9B" opacity="1.000000" stroke="none" 
	d="
M250.763245,221.193359 
	C250.213333,220.839966 250.100418,220.377731 249.937790,219.561554 
	C269.796051,219.135742 289.704010,219.062027 309.612061,219.015717 
	C309.835724,219.015213 310.060242,219.371826 311.513428,220.603149 
	C290.598572,220.770081 270.899414,220.927307 250.763245,221.193359 
z"/>
<path fill="#BDBDBD" opacity="1.000000" stroke="none" 
	d="
M395.619568,219.143158 
	C396.079712,219.263519 396.176544,219.719986 396.050934,219.916595 
	C375.187134,220.113205 354.448944,220.113205 333.710754,220.113205 
	C333.712402,219.749725 333.714050,219.386261 333.715698,219.022781 
	C354.196930,219.022781 374.678192,219.022781 395.619568,219.143158 
z"/>
<path fill="#191919" opacity="1.000000" stroke="none" 
	d="
M280.566437,424.916077 
	C284.244568,430.930237 285.753662,431.233948 294.905365,428.137054 
	C292.589600,432.724121 286.085114,433.892914 281.627563,430.424072 
	C277.781555,427.431183 276.841278,423.278015 277.805389,418.773071 
	C278.542206,415.330231 279.018127,411.785583 283.609192,410.529022 
	C291.339111,408.413330 296.459381,412.565369 295.706726,421.277588 
	C291.439209,421.277588 287.133942,421.398834 282.839691,421.233612 
	C280.116455,421.128845 279.650452,422.288147 280.566437,424.916077 
M280.532623,417.321106 
	C280.795410,417.908813 281.044312,419.000763 281.322998,419.008423 
	C285.351685,419.119110 289.384338,419.084259 293.416046,419.084259 
	C293.706543,418.515564 293.997070,417.946869 294.287567,417.378143 
	C292.279968,415.605133 290.539093,413.022339 288.201141,412.252350 
	C284.844849,411.146942 282.243958,413.308014 280.532623,417.321106 
z"/>
<path fill="#1F1F1F" opacity="1.000000" stroke="none" 
	d="
M353.299377,432.334076 
	C349.196808,431.894257 346.234772,430.529175 345.131439,425.316498 
	C346.615448,426.255280 347.368683,426.755829 348.144928,427.217804 
	C349.770966,428.185394 351.494965,430.030121 353.022614,429.883881 
	C355.484253,429.648193 359.362122,428.607239 359.898651,426.994080 
	C361.152466,423.224457 357.123138,423.006134 354.583099,422.102509 
	C353.804626,421.825562 352.978638,421.685089 352.181854,421.456238 
	C349.037445,420.553040 345.663544,419.444275 346.125336,415.417114 
	C346.611359,411.178314 350.076935,410.034088 353.844269,409.900421 
	C358.180511,409.746552 361.595734,411.034729 363.108398,417.186493 
	C361.364716,415.919067 360.672546,415.268005 359.859558,414.854431 
	C357.901581,413.858459 355.889893,412.267792 353.894440,412.259735 
	C352.193481,412.252869 350.484894,414.117859 348.779663,415.154785 
	C350.083710,416.558563 351.183075,418.288879 352.751038,419.271637 
	C354.234100,420.201233 356.568909,419.894226 357.883820,420.941345 
	C359.873840,422.526276 362.761353,424.961426 362.578552,426.762421 
	C362.380798,428.711334 359.210602,430.504517 357.099243,432.038666 
	C356.300385,432.619171 354.838043,432.286621 353.299377,432.334076 
z"/>
<path fill="#191919" opacity="1.000000" stroke="none" 
	d="
M301.094666,426.229675 
	C304.411469,427.909973 306.792145,431.580963 311.093384,430.001282 
	C312.772797,429.384552 314.146881,427.936493 315.660034,426.867126 
	C314.461914,425.501373 313.507996,423.674408 312.007385,422.879974 
	C309.856201,421.741028 307.058502,421.763794 305.005035,420.518494 
	C303.384460,419.535706 301.504669,417.384521 301.511444,415.759613 
	C301.518311,414.111328 303.355347,411.873352 304.988770,410.938660 
	C310.377319,407.855255 316.393921,410.437378 317.852814,416.971680 
	C316.497650,415.878967 315.830170,415.093567 314.981110,414.704742 
	C312.848022,413.727875 310.649139,412.331238 308.444916,412.271393 
	C306.977386,412.231567 305.455353,414.201813 303.957703,415.272369 
	C305.150726,416.595245 306.111572,418.362976 307.591827,419.135529 
	C309.752594,420.263367 312.551178,420.255310 314.576324,421.528961 
	C316.154846,422.521637 317.873413,424.732086 317.868591,426.396576 
	C317.863800,428.058502 316.154907,430.346436 314.562378,431.257751 
	C309.184143,434.335358 302.788483,431.924133 301.094666,426.229675 
z"/>
<path fill="#101010" opacity="1.000000" stroke="none" 
	d="
M339.384918,430.215912 
	C337.421326,430.921295 334.856506,432.297424 332.792175,431.757996 
	C331.153473,431.329773 329.228271,428.663605 329.007263,426.803741 
	C328.463776,422.229919 328.829437,417.548065 328.829437,412.601898 
	C326.601227,412.321167 324.723724,412.084625 322.846222,411.848083 
	C322.793488,411.498169 322.740753,411.148285 322.688019,410.798370 
	C324.557007,410.427490 326.426025,410.056610 328.377167,409.669434 
	C328.678528,408.036987 328.983948,406.382538 329.289368,404.728058 
	C329.673981,404.703186 330.058594,404.678284 330.443207,404.653412 
	C330.806396,406.364471 331.169617,408.075562 331.570435,409.963928 
	C334.058289,410.116302 336.537018,410.268127 339.015778,410.419952 
	C339.024567,410.907166 339.033325,411.394379 339.042114,411.881622 
	C336.602722,412.052429 334.163330,412.223206 331.171234,412.432709 
	C331.171234,417.084625 330.857910,421.708496 331.255280,426.270477 
	C331.692963,431.295624 335.836182,429.945923 339.384918,430.215912 
z"/>
<path fill="#2B2B2B" opacity="1.000000" stroke="none" 
	d="
M258.715088,424.026978 
	C258.610321,427.032257 258.505554,429.571960 258.400787,432.111633 
	C257.793732,432.083008 257.186707,432.054352 256.579651,432.025726 
	C256.579651,424.760193 256.579651,417.494659 256.579651,410.229126 
	C260.158142,414.277100 258.266541,419.086151 258.715088,424.026978 
z"/>
<path fill="#070707" opacity="1.000000" stroke="none" 
	d="
M241.545624,414.184784 
	C240.836578,417.508942 239.921707,420.806366 239.485199,424.165924 
	C239.150253,426.743866 239.418518,429.400146 239.418518,432.021606 
	C238.715179,432.045013 238.011856,432.068390 237.308517,432.091797 
	C237.196991,430.824097 236.997574,429.556946 236.989197,428.288574 
	C236.953979,422.959625 236.927383,417.629272 237.037750,412.302338 
	C237.051682,411.630127 237.895157,410.975128 238.354309,410.312164 
	C238.649475,410.840546 238.944641,411.368896 239.260803,412.680786 
	C240.036423,413.704468 240.791016,413.944611 241.545624,414.184784 
z"/>
<path fill="#0B0B0B" opacity="1.000000" stroke="none" 
	d="
M270.587830,415.902985 
	C267.575073,413.901886 264.699432,412.308899 262.387421,411.028137 
	C267.678406,407.896881 272.859161,410.442841 273.146301,417.674591 
	C273.335632,422.442230 273.182159,427.223511 273.182159,431.998718 
	C272.363098,431.994873 271.544067,431.991058 270.725006,431.987213 
	C270.725006,426.761841 270.725006,421.536469 270.587830,415.902985 
z"/>
<path fill="#1F1F1F" opacity="1.000000" stroke="none" 
	d="
M241.910019,414.057159 
	C240.791016,413.944611 240.036423,413.704468 239.193817,413.067871 
	C240.937576,411.879395 242.705215,410.747223 244.618301,410.386475 
	C246.733337,409.987671 248.981598,410.295349 251.191010,411.482697 
	C248.218811,412.298309 245.246613,413.113922 241.910019,414.057159 
z"/>
<path fill="#070707" opacity="1.000000" stroke="none" 
	d="
M260.492493,259.924774 
	C260.492432,262.376007 260.492432,264.360870 260.492432,266.704346 
	C258.907501,266.818146 257.519257,266.917786 255.113815,267.090485 
	C255.113815,261.183167 255.113815,255.613022 255.113815,250.042892 
	C254.445450,250.036926 253.777084,250.030960 253.108719,250.024994 
	C253.108719,255.557587 253.108719,261.090149 253.108719,266.804626 
	C250.834930,266.804626 249.569687,266.804626 247.307770,266.804626 
	C247.307770,261.201721 247.307770,255.614487 247.307770,250.027283 
	C246.637894,250.013565 245.968033,249.999863 245.298157,249.986160 
	C245.298157,255.519333 245.298157,261.052521 245.298157,266.770508 
	C242.895172,266.770508 241.507050,266.770508 239.947784,266.770508 
	C239.947784,259.932129 239.947784,253.324661 239.947784,246.532089 
	C243.687744,246.532089 247.462753,246.516708 251.237274,246.552658 
	C251.679993,246.556870 252.133347,247.009247 252.559296,246.974930 
	C260.119019,246.365936 260.392120,246.592926 260.488464,253.971375 
	C260.512360,255.800079 260.492340,257.629364 260.492493,259.924774 
z"/>
<path fill="#080808" opacity="1.000000" stroke="none" 
	d="
M344.686829,248.436447 
	C342.670227,250.680267 340.906586,252.636078 339.027405,254.720047 
	C341.846100,258.601837 344.561920,262.341949 347.319000,266.138916 
	C342.461517,267.528992 342.461517,267.528992 334.619385,257.892334 
	C333.721588,261.243134 333.047211,263.760101 332.228180,266.816925 
	C331.272736,266.866730 329.694916,266.949005 327.832336,267.046082 
	C327.832336,257.001160 327.832336,247.250259 327.832336,237.271683 
	C329.399933,237.186096 330.858063,237.106491 332.764099,237.002441 
	C332.764099,242.399536 332.764099,247.645721 332.764099,254.131683 
	C335.203064,251.542114 336.589569,249.415695 338.540924,248.184540 
	C340.441559,246.985397 342.920227,246.702438 345.145111,246.017212 
	C345.076660,246.727631 345.008209,247.438034 344.686829,248.436447 
z"/>
<path fill="#0A0A0A" opacity="1.000000" stroke="none" 
	d="
M269.976746,267.251099 
	C265.420197,267.207886 262.302979,265.745026 262.043182,261.122040 
	C261.783691,256.504700 264.675201,254.864624 274.561859,253.712585 
	C273.795807,249.858139 271.765869,248.813644 268.671906,250.475296 
	C266.989563,251.378815 265.113281,251.921295 262.817749,252.826431 
	C263.883942,247.237823 266.417511,245.488190 271.870148,245.682175 
	C276.999298,245.864655 279.881104,248.045624 280.100464,252.442642 
	C280.336365,257.171234 280.153748,261.920715 280.153748,266.671387 
	C277.219360,266.834045 273.812988,267.022858 269.976746,267.251099 
M274.164795,257.400452 
	C273.190521,257.388580 272.071808,257.064941 271.274292,257.434479 
	C269.920013,258.062073 268.580048,258.970764 267.644318,260.101013 
	C267.358368,260.446442 268.380737,262.688904 268.866028,262.711182 
	C270.537445,262.787933 272.501434,262.677551 273.826294,261.821625 
	C274.635010,261.299194 274.476593,259.279663 274.164795,257.400452 
z"/>
<path fill="#101010" opacity="1.000000" stroke="none" 
	d="
M376.348145,261.982544 
	C377.705780,262.634003 378.847565,263.415680 379.843628,263.260681 
	C381.298065,263.034363 382.647827,262.135315 384.042236,261.523041 
	C382.842163,260.641327 381.740784,259.547211 380.416870,258.931976 
	C378.781921,258.172180 376.667755,258.203461 375.296539,257.177002 
	C373.591156,255.900421 371.241394,253.816223 371.343048,252.219131 
	C371.468323,250.251221 373.434052,247.691727 375.303894,246.677231 
	C380.793579,243.698792 387.125702,246.122253 389.755005,252.835403 
	C387.037109,251.961365 385.165955,251.321594 383.270874,250.762909 
	C381.899261,250.358551 380.478729,249.750885 379.112762,249.826309 
	C378.201385,249.876663 377.347504,250.968277 376.467896,251.593872 
	C377.176575,252.383789 377.741119,253.560303 378.621857,253.888641 
	C380.938782,254.752365 383.638123,254.823608 385.714691,256.024200 
	C387.348358,256.968719 389.322632,259.169342 389.256500,260.732086 
	C389.177490,262.598572 387.493927,265.076813 385.792694,266.073059 
	C379.640808,269.675568 372.117523,266.753021 370.621216,259.593658 
	C372.791931,260.430847 374.429565,261.062439 376.348145,261.982544 
z"/>
<path fill="#080808" opacity="1.000000" stroke="none" 
	d="
M298.455170,262.588379 
	C301.669647,262.432587 304.087494,262.579529 302.839325,266.742004 
	C297.251343,266.742004 291.518097,266.742004 285.569275,266.742004 
	C285.569275,265.436920 285.569275,264.230652 285.569275,262.896881 
	C287.612396,262.724487 289.389435,262.574554 291.442810,262.401276 
	C291.442810,255.502899 291.442810,248.798492 291.442810,242.182663 
	C289.360779,240.628708 283.884888,243.637222 285.644928,237.323486 
	C289.191437,237.323486 292.787323,237.323486 297.083191,237.323486 
	C297.083191,243.957260 297.022888,250.686523 297.125031,257.413330 
	C297.151001,259.122864 297.693359,260.824524 298.455170,262.588379 
z"/>
<path fill="#101010" opacity="1.000000" stroke="none" 
	d="
M356.109283,245.957932 
	C358.196991,245.957932 359.825958,245.957932 361.819550,245.957932 
	C361.819550,251.500977 361.819550,256.742523 361.819550,261.665009 
	C363.796448,263.672546 369.435150,260.682709 367.303497,266.772400 
	C361.902527,266.772400 356.334930,266.772400 350.772369,266.772400 
	C350.493927,262.904724 350.493927,262.904724 356.003265,262.217896 
	C356.003265,258.540039 356.003265,254.816589 356.002106,251.090118 
	C350.526581,249.684082 350.526581,249.684082 350.789551,245.957932 
	C352.389526,245.957932 354.020050,245.957932 356.109283,245.957932 
z"/>
<path fill="#0D0D0D" opacity="1.000000" stroke="none" 
	d="
M318.733612,252.138214 
	C318.733612,255.743240 318.733612,258.869019 318.733612,262.231812 
	C320.623047,262.485107 322.202393,262.696838 324.022156,262.940796 
	C324.022156,264.211334 324.022156,265.448669 324.022156,266.853027 
	C318.452911,266.853027 313.024384,266.853027 307.339661,266.853027 
	C307.339661,265.520264 307.339661,264.295135 307.339661,262.922882 
	C309.168182,262.736572 310.944183,262.555634 312.890808,262.357300 
	C312.890808,258.440491 312.890808,254.670929 312.890808,250.660461 
	C311.055054,250.459305 309.292480,250.266159 307.309326,250.048843 
	C307.309326,248.778671 307.309326,247.552750 307.309326,246.153030 
	C311.043579,246.153030 314.631805,246.153030 318.733612,246.153030 
	C318.733612,248.109879 318.733612,249.884415 318.733612,252.138214 
z"/>
<path fill="#080808" opacity="1.000000" stroke="none" 
	d="
M356.370972,241.738129 
	C355.886200,238.462311 357.595581,237.357224 359.997314,238.103653 
	C360.916992,238.389481 361.276093,240.479065 361.890625,241.746704 
	C360.123260,241.862915 358.355927,241.979126 356.370972,241.738129 
z"/>
<path fill="#080808" opacity="1.000000" stroke="none" 
	d="
M318.176697,238.703369 
	C319.678070,241.720612 318.505859,243.281021 315.850616,243.135101 
	C314.833405,243.079193 313.913696,241.248917 312.949554,240.227173 
	C314.601746,239.614960 316.253967,239.002731 318.176697,238.703369 
z"/>
<path fill="#F7F7F7" opacity="1.000000" stroke="none" 
	d="
M280.696838,416.956146 
	C282.243958,413.308014 284.844849,411.146942 288.201141,412.252350 
	C290.539093,413.022339 292.279968,415.605133 294.287567,417.378143 
	C293.997070,417.946869 293.706543,418.515564 293.416046,419.084259 
	C289.384338,419.084259 285.351685,419.119110 281.322998,419.008423 
	C281.044312,419.000763 280.795410,417.908813 280.696838,416.956146 
z"/>
<path fill="#E6E6E6" opacity="1.000000" stroke="none" 
	d="
M274.458679,257.666504 
	C274.476593,259.279663 274.635010,261.299194 273.826294,261.821625 
	C272.501434,262.677551 270.537445,262.787933 268.866028,262.711182 
	C268.380737,262.688904 267.358368,260.446442 267.644318,260.101013 
	C268.580048,258.970764 269.920013,258.062073 271.274292,257.434479 
	C272.071808,257.064941 273.190521,257.388580 274.458679,257.666504 
z"/>
</svg>